{"accessors" : [{"bufferView" : 0, "byteOffset" : 0, "componentType" : 5125, "count" : 94080, "type" : "SCALAR", "max" : [74447], "min" : [0]}, {"bufferView" : 1, "byteOffset" : 0, "componentType" : 5126, "count" : 74448, "type" : "VEC3", "max" : [10.689299583435059, 11.97719955444336, 9.139100074768066], "min" : [-10.71049976348877, -10.091500282287598, 0.23430000245571136], "name" : "POSITION"}, {"bufferView" : 1, "byteOffset" : 12, "componentType" : 5126, "count" : 74448, "type" : "VEC3", "max" : [1.0000044107437134, 1.0000044107437134, 1.0000044107437134], "min" : [-1.0000044107437134, -1.0000044107437134, -1.0000044107437134], "name" : "NORMAL"}], "asset" : {"generator" : "Aspose.3D 22.1", "version" : "2.0"}, "buffers" : [{"uri" : "data:application/octet-stream;base64,", "byteLength" : 2634248}], "bufferViews" : [{"buffer" : 0, "byteOffset" : 0, "byteLength" : 376320, "target" : 34963}, {"buffer" : 0, "byteOffset" : 376324, "byteLength" : 2257920, "byteStride" : 24, "target" : 34962}], "meshes" : [{"primitives" : [{"attributes" : {"POSITION" : 1, "NORMAL" : 2}, "indices" : 0, "mode" : 4}], "name" : ""}], "nodes" : [{"mesh" : 0, "name" : "17890_Heart_Glasses"}], "scene" : 0, "scenes" : [{"nodes" : [0]}]}